HIERARCHY
ROOT hip
{
	OFFSET 0.000000 0.000000 0.000000 
	CHANNELS 6 Xposition Yposition Zposition Xrotation Zrotation Yrotation
	JOINT abdomen
	{
		OFFSET 0.000000 3.402643 0.000000 
		CHANNELS 3 Xrotation Zrotation Yrotation
		JOINT chest
		{
			OFFSET 0.000000 8.438565 -0.680529 
			CHANNELS 3 Xrotation Zrotation Yrotation
			JOINT neck
			{
				OFFSET 0.000000 10.207942 -0.272212 
				CHANNELS 3 Xrotation Zrotation Yrotation
				JOINT head
				{
					OFFSET 0.000000 3.130431 0.000000 
					CHANNELS 3 Xrotation Zrotation Yrotation
					End Site
					{
						OFFSET 0.000000 3.130435 0.000000 
					}
				}
			}
			JOINT lCollar
			{
				OFFSET 3.470700 6.669187 -0.816635 
				CHANNELS 3 Yrotation Zrotation Xrotation
				JOINT lShldr
				{
					OFFSET 3.198488 0.000000 0.000000 
					CHANNELS 3 Zrotation Yrotation Xrotation
					JOINT lForeArm
					{
						OFFSET 10.139888 0.000000 0.000000 
						CHANNELS 3 Yrotation Zrotation Xrotation
						JOINT lHand
						{
							OFFSET 8.370511 0.000000 0.000000 
							CHANNELS 3 Zrotation Yrotation Xrotation
							End Site
							{
								OFFSET 4.083176 0.000000 0.000000 
							}
						}
					}
				}
			}
			JOINT rCollar
			{
				OFFSET -3.470700 6.669187 -0.816635 
				CHANNELS 3 Yrotation Zrotation Xrotation
				JOINT rShldr
				{
					OFFSET -3.198488 0.000000 0.000000 
					CHANNELS 3 Zrotation Yrotation Xrotation
					JOINT rForeArm
					{
						OFFSET -10.139888 0.000000 0.000000 
						CHANNELS 3 Yrotation Zrotation Xrotation
						JOINT rHand
						{
							OFFSET -8.370511 0.000000 0.000000 
							CHANNELS 3 Zrotation Yrotation Xrotation
							End Site
							{
								OFFSET -4.083176 0.000000 0.000000 
							}
						}
					}
				}
			}
		}
	}
	JOINT lThigh
	{
		OFFSET 5.308129 -1.633274 1.361059 
		CHANNELS 3 Xrotation Zrotation Yrotation
		JOINT lShin
		{
			OFFSET -2.041588 -20.007561 0.000000 
			CHANNELS 3 Xrotation Zrotation Yrotation
			JOINT lFoot
			{
				OFFSET 0.000000 -19.190928 -1.224953 
				CHANNELS 3 Xrotation Yrotation Zrotation
				End Site
				{
					OFFSET 0.000000 -2.449906 4.627600 
				}
			}
		}
	}
	JOINT rThigh
	{
		OFFSET -5.308129 -1.633274 1.361059 
		CHANNELS 3 Xrotation Zrotation Yrotation
		JOINT rShin
		{
			OFFSET 2.041588 -20.007561 0.000000 
			CHANNELS 3 Xrotation Zrotation Yrotation
			JOINT rFoot
			{
				OFFSET 0.000000 -19.190928 -1.224953 
				CHANNELS 3 Xrotation Yrotation Zrotation
				End Site
				{
					OFFSET 0.000000 -2.449906 4.627600 
				}
			}
		}
	}
}
MOTION
Frames: 10
Frame Time: 0.033333
-0.001692 17.299261 -0.003031 4.394532 5.244141 129.971603 38.755608 -12.661843 -8.162658 -22.685549 7.148438 0.937500 51.063168 8.107644 2.471410 -59.042969 2.763672 1.757813 2.000000 -2.000000 0.000000 -79.580078 -11.201171 -1.388614 -91.862656 -0.043781 -2.986502 23.887085 49.230358 5.187294 -2.000000 2.000000 0.000000 74.218750 2.509766 -16.826172 97.605904 -0.782091 -3.083170 5.023496 -19.098089 -4.904389 -85.453552 3.534621 1.754748 66.934074 -2.008138 -4.691511 -6.932716 -3.154346 -1.377218 -84.194595 -8.788823 -0.944294 62.541931 2.167860 4.064570 0.047865 -7.548932 0.656389 
-0.003314 17.228323 -0.005924 4.394532 5.244141 129.971603 38.755608 -12.661843 -8.162658 -22.685549 7.148438 1.113282 51.063168 8.107644 2.471410 -59.003906 3.271484 1.494141 2.000000 -2.000000 0.000000 -79.794922 -11.005859 -1.369052 -91.849060 0.139609 -2.860247 23.489071 49.474701 4.886493 -2.000000 2.000000 0.000000 74.033195 2.500000 -16.992188 97.605904 -0.782091 -3.083170 -10.304827 -52.468269 13.420532 -85.628868 3.534441 1.767225 67.100090 -1.978753 -4.695411 -6.991547 -3.009305 -1.270974 -84.393845 -8.808749 -0.759139 62.550724 2.182137 4.092871 0.046851 -7.551139 0.634729 
-0.004892 17.173248 -0.008725 4.394532 5.244141 129.971603 38.755608 -12.661843 -8.162658 -22.695313 6.972657 1.083985 51.063168 8.107644 2.471410 -58.798832 3.603515 1.113282 2.000000 -2.000000 0.000000 -79.794922 -11.005859 -1.369052 -91.849060 0.139609 -2.860247 23.260744 49.791668 4.496091 -2.000000 2.000000 0.000000 73.847656 2.675781 -16.981964 97.601250 -0.781931 -2.916933 -10.717548 -52.218731 13.948702 -85.631813 3.359058 1.762245 67.109756 -1.959191 -4.693380 -6.992210 -3.055244 -1.281504 -84.554108 -8.974386 -0.920840 62.726067 2.167753 4.117203 0.043155 -7.490427 0.887995 
-0.006446 17.149645 -0.011490 4.228516 5.058593 129.921875 38.755608 -12.661843 -8.162658 -22.695313 6.972657 1.083985 51.063168 8.107644 2.471410 -58.779297 3.955078 0.899111 2.000000 -2.000000 0.000000 -80.048828 -10.830078 -1.183474 -91.673004 0.130424 -2.849936 23.339401 50.008560 4.555969 -2.000000 2.000000 0.000000 74.169922 2.929687 -16.845701 97.783279 -0.760026 -2.788549 -11.059360 -52.544842 14.549261 -85.809845 3.358778 1.738355 67.286064 -1.969868 -4.694531 -7.084665 -2.725229 -1.466566 -84.554108 -8.974381 -0.920842 62.896698 2.158074 4.269183 0.044360 -7.095032 0.891978 
-0.007994 17.141653 -0.014244 4.228516 5.058593 129.921875 38.581902 -12.683464 -8.160361 -22.695313 6.972657 1.083985 51.063168 8.107644 2.471410 -58.759769 4.140625 0.683594 2.000000 -2.000000 0.000000 -79.863281 -10.839843 -1.181641 -91.496948 0.121240 -2.839624 22.958422 49.970112 4.240737 -2.000000 2.000000 0.000000 74.042969 2.509765 -16.982420 97.781677 -0.791840 -3.083734 -11.159328 -52.516666 14.332778 -85.811691 3.368370 1.572461 67.286194 -1.959977 -4.688233 -7.083391 -2.685263 -1.641020 -84.732674 -8.974750 -0.900165 62.905682 2.143058 4.290065 0.042735 -7.147915 0.673386 
-0.009580 17.165377 -0.017046 4.228516 5.058593 129.755859 38.590012 -12.595037 -8.312537 -22.685549 7.148438 1.113282 51.063168 8.107644 2.471410 -58.574219 4.287163 0.683603 2.000000 -2.000000 0.000000 -80.048828 -10.878907 -1.017468 -91.321175 0.121240 -2.839624 22.596218 49.922478 3.934644 -2.000000 2.000000 0.000000 74.228516 2.363281 -16.621094 97.957458 -0.791840 -3.083734 -11.235536 -52.673817 14.165775 -85.804100 3.193011 1.576424 67.265739 -1.949579 -4.708972 -7.190984 -2.500368 -1.303686 -84.750420 -9.150073 -0.729217 62.906288 2.148408 4.273919 0.060948 -6.951025 0.624071 
-0.011202 17.228323 -0.019939 4.228516 5.058593 129.755859 38.393967 -12.454736 -8.184779 -22.851564 7.324219 1.103516 51.063168 8.107644 2.471410 -58.398438 4.277344 0.693360 2.000000 -2.000000 0.000000 -80.078125 -10.712892 -1.183456 -91.159256 -0.062715 -2.975625 22.588013 49.580269 4.290017 -2.000000 2.000000 0.000000 74.423828 1.992188 -16.748047 98.142845 -0.626666 -3.064403 -11.404371 -52.460892 14.191125 -85.780708 3.182696 1.769521 67.265266 -1.931088 -4.716191 -7.229998 -2.396679 -1.428916 -84.728683 -9.140589 -0.895300 62.907021 2.166777 4.255738 0.064482 -6.936196 0.639958 
-0.012886 17.299261 -0.022970 4.042969 4.902344 129.561386 38.402874 -12.375425 -8.340416 -23.027344 7.509766 1.103516 51.063168 8.107644 2.471410 -58.232426 4.082031 0.556641 2.000000 -2.000000 0.000000 -80.126953 -10.380860 -1.163869 -90.978371 -0.072300 -3.141309 22.053411 49.841518 3.728320 -2.000000 2.000000 0.000000 74.638672 1.757813 -16.757513 98.309006 -0.811339 -3.084862 -11.461316 -52.080620 14.353456 -85.980721 3.192733 1.571515 67.266319 -1.959258 -4.695886 -7.270622 -2.178034 -1.501915 -84.728683 -9.140583 -0.895302 62.730171 2.186258 4.272932 0.025303 -6.722713 0.927889 
-0.014666 17.378067 -0.026186 3.857422 4.726563 129.356262 38.236305 -12.164906 -8.371794 -23.017578 7.685547 1.123047 51.063168 8.107644 2.471410 -58.222656 4.257812 0.527344 2.000000 -2.000000 0.000000 -79.960938 -10.224608 -0.782982 -90.969612 0.101742 -2.838493 22.420012 49.810875 3.839050 -2.000000 2.000000 0.000000 75.341797 1.650391 -17.353516 98.494675 -0.645600 -3.075276 -11.536222 -51.700573 14.534581 -86.156166 3.183249 1.722889 67.286301 -1.978873 -4.690640 -7.362276 -1.971726 -1.335303 -84.915054 -9.140291 -0.902224 62.717358 2.148371 4.085903 0.041545 -6.360592 0.690566 
-0.016559 17.464739 -0.029624 3.701172 4.384766 129.141357 38.179226 -12.118725 -8.104416 -22.851563 7.500000 0.948540 51.063168 8.107644 2.471410 -58.388672 4.443358 0.303491 2.000000 -2.000000 0.000000 -79.638672 -10.078125 -0.400391 -91.145393 0.111491 -2.839059 22.341303 49.584301 3.779162 -2.000000 2.000000 0.000000 75.673828 1.982422 -17.792633 98.484779 -0.821088 -3.085426 -11.496711 -51.514526 14.485342 -86.333267 3.192802 1.570576 67.451942 -1.949492 -4.704029 -7.701972 -2.080246 -1.414112 -85.070580 -9.130552 -1.066078 62.541931 2.167854 4.064568 0.062425 -6.435359 0.861661 
